<?xml version="1.0" encoding="UTF-8" standalone="no"?>
<!-- Created with Inkscape (http://www.inkscape.org/) -->

<svg
   width="512"
   height="512"
   viewBox="0 0 135.46667 135.46667"
   version="1.1"
   id="svg5"
   xml:space="preserve"
   inkscape:version="1.2.2 (b0a8486541, 2022-12-01)"
   sodipodi:docname="plm_logo.svg"
   inkscape:export-filename="Pictures/plm_logo.svg"
   inkscape:export-xdpi="96"
   inkscape:export-ydpi="96"
   xmlns:inkscape="http://www.inkscape.org/namespaces/inkscape"
   xmlns:sodipodi="http://sodipodi.sourceforge.net/DTD/sodipodi-0.dtd"
   xmlns:xlink="http://www.w3.org/1999/xlink"
   xmlns="http://www.w3.org/2000/svg"
   xmlns:svg="http://www.w3.org/2000/svg"><sodipodi:namedview
     id="namedview7"
     pagecolor="#ffffff"
     bordercolor="#999999"
     borderopacity="1"
     inkscape:showpageshadow="0"
     inkscape:pageopacity="0"
     inkscape:pagecheckerboard="0"
     inkscape:deskcolor="#d1d1d1"
     inkscape:document-units="mm"
     showgrid="false"
     inkscape:zoom="1.3808221"
     inkscape:cx="290.40671"
     inkscape:cy="196.622"
     inkscape:window-width="1904"
     inkscape:window-height="927"
     inkscape:window-x="20"
     inkscape:window-y="20"
     inkscape:window-maximized="0"
     inkscape:current-layer="layer3" /><defs
     id="defs2"><linearGradient
       id="calendar_days"
       inkscape:swatch="solid"><stop
         style="stop-color:#000000;stop-opacity:1;"
         offset="0"
         id="stop14698" /></linearGradient><linearGradient
       id="linearGradient14315"
       inkscape:swatch="solid"><stop
         style="stop-color:#0f172a;stop-opacity:1;"
         offset="0"
         id="stop14313" /></linearGradient><linearGradient
       id="background"
       inkscape:swatch="solid"><stop
         style="stop-color:#0f172a;stop-opacity:1;"
         offset="0"
         id="stop14298" /></linearGradient><linearGradient
       id="calendar_rings"
       inkscape:swatch="solid"><stop
         style="stop-color:#9a9a9a;stop-opacity:1;"
         offset="0"
         id="stop12737" /></linearGradient><linearGradient
       id="calendar_base"
       inkscape:swatch="solid"><stop
         style="stop-color:#422e74;stop-opacity:1;"
         offset="0"
         id="stop12731" /></linearGradient><linearGradient
       id="clock"
       inkscape:swatch="solid"><stop
         style="stop-color:#ffb800;stop-opacity:1;"
         offset="0"
         id="stop11337" /></linearGradient><linearGradient
       id="check"
       inkscape:swatch="solid"><stop
         style="stop-color:#16a34a;stop-opacity:1;"
         offset="0"
         id="stop11124" /></linearGradient><linearGradient
       id="gear"
       inkscape:swatch="solid"><stop
         style="stop-color:#2563eb;stop-opacity:1;"
         offset="0"
         id="stop11049" /></linearGradient><linearGradient
       id="heart_outer"
       inkscape:swatch="solid"><stop
         style="stop-color:#fda4af;stop-opacity:1;"
         offset="0"
         id="stop10698" /></linearGradient><linearGradient
       id="heart_inner"
       inkscape:swatch="solid"><stop
         style="stop-color:#fb7185;stop-opacity:1;"
         offset="0"
         id="stop10416" /></linearGradient><linearGradient
       id="brain_shadow"
       inkscape:swatch="solid"><stop
         style="stop-color:#fdba74;stop-opacity:1;"
         offset="0"
         id="stop10203" /></linearGradient><linearGradient
       id="brain_base_color"
       inkscape:swatch="solid"><stop
         style="stop-color:#fed7aa;stop-opacity:1;"
         offset="0"
         id="stop9921" /></linearGradient><linearGradient
       id="cloud_tongue"
       inkscape:swatch="solid"><stop
         style="stop-color:#fda4af;stop-opacity:1;"
         offset="0"
         id="stop9544" /></linearGradient><linearGradient
       id="cloud_cheeks"
       inkscape:swatch="solid"><stop
         style="stop-color:#f9a8d4;stop-opacity:1;"
         offset="0"
         id="stop6941" /></linearGradient><linearGradient
       id="cloud_highlight"
       inkscape:swatch="solid"><stop
         style="stop-color:#dbeafe;stop-opacity:1;"
         offset="0"
         id="stop6521" /></linearGradient><linearGradient
       id="cloud_shadow"
       inkscape:swatch="solid"><stop
         style="stop-color:#93c5fd;stop-opacity:1;"
         offset="0"
         id="stop6446" /></linearGradient><linearGradient
       id="linearGradient6166"
       inkscape:swatch="solid"><stop
         style="stop-color:#bcbcbc;stop-opacity:1;"
         offset="0"
         id="stop6164" /></linearGradient><linearGradient
       id="linearGradient6160"
       inkscape:swatch="solid"><stop
         style="stop-color:#bcbcbc;stop-opacity:1;"
         offset="0"
         id="stop6158" /></linearGradient><linearGradient
       id="cloud_base_color"
       inkscape:swatch="solid"><stop
         style="stop-color:#bfdbfe;stop-opacity:1;"
         offset="0"
         id="stop6152" /></linearGradient><linearGradient
       inkscape:collect="always"
       xlink:href="#cloud_base_color"
       id="linearGradient6156"
       x1="22.156319"
       y1="60.369228"
       x2="84.272896"
       y2="60.369228"
       gradientUnits="userSpaceOnUse"
       gradientTransform="translate(0,6.879167)" /><linearGradient
       inkscape:collect="always"
       xlink:href="#cloud_base_color"
       id="linearGradient6162"
       x1="47.183296"
       y1="74.04834"
       x2="77.582802"
       y2="74.04834"
       gradientUnits="userSpaceOnUse"
       gradientTransform="translate(0,6.879167)" /><linearGradient
       inkscape:collect="always"
       xlink:href="#cloud_base_color"
       id="linearGradient6168"
       x1="84.428764"
       y1="54.092937"
       x2="100.90512"
       y2="54.092937"
       gradientUnits="userSpaceOnUse"
       gradientTransform="translate(0,6.879167)" /><linearGradient
       inkscape:collect="always"
       xlink:href="#cloud_shadow"
       id="linearGradient6450"
       x1="22.312332"
       y1="78.465134"
       x2="78.775551"
       y2="78.465134"
       gradientUnits="userSpaceOnUse"
       gradientTransform="translate(0,6.879167)" /><linearGradient
       inkscape:collect="always"
       xlink:href="#cloud_highlight"
       id="linearGradient6525"
       x1="18.999676"
       y1="60.368778"
       x2="87.490288"
       y2="60.368778"
       gradientUnits="userSpaceOnUse"
       gradientTransform="translate(0,6.879167)" /><linearGradient
       inkscape:collect="always"
       xlink:href="#cloud_cheeks"
       id="linearGradient6945"
       x1="48.354053"
       y1="62.764381"
       x2="74.926575"
       y2="62.764381"
       gradientUnits="userSpaceOnUse"
       gradientTransform="translate(0,6.879167)" /><linearGradient
       inkscape:collect="always"
       xlink:href="#cloud_tongue"
       id="linearGradient9548"
       x1="57.799587"
       y1="64.450645"
       x2="64.672432"
       y2="64.450645"
       gradientUnits="userSpaceOnUse"
       gradientTransform="translate(0,6.879167)" /><linearGradient
       inkscape:collect="always"
       xlink:href="#brain_base_color"
       id="linearGradient9925"
       x1="69.460991"
       y1="75.003128"
       x2="110.76049"
       y2="75.003128"
       gradientUnits="userSpaceOnUse"
       gradientTransform="translate(0,6.879167)" /><linearGradient
       inkscape:collect="always"
       xlink:href="#brain_shadow"
       id="linearGradient10207"
       x1="72.944382"
       y1="71.283249"
       x2="108.17902"
       y2="71.283249"
       gradientUnits="userSpaceOnUse"
       gradientTransform="translate(0,6.879167)" /><linearGradient
       inkscape:collect="always"
       xlink:href="#heart_inner"
       id="linearGradient10420"
       x1="80.596176"
       y1="39.234482"
       x2="88.314674"
       y2="39.234482"
       gradientUnits="userSpaceOnUse"
       gradientTransform="translate(0,6.879167)" /><linearGradient
       inkscape:collect="always"
       xlink:href="#heart_outer"
       id="linearGradient10702"
       x1="78.973953"
       y1="39.532211"
       x2="89.910263"
       y2="39.532211"
       gradientUnits="userSpaceOnUse"
       gradientTransform="translate(0,6.879167)" /><linearGradient
       inkscape:collect="always"
       xlink:href="#gear"
       id="linearGradient11053"
       x1="100.20272"
       y1="46.515511"
       x2="109.14064"
       y2="46.515511"
       gradientUnits="userSpaceOnUse"
       gradientTransform="translate(0,6.879167)" /><linearGradient
       inkscape:collect="always"
       xlink:href="#check"
       id="linearGradient11128"
       x1="110.6406"
       y1="55.05793"
       x2="118.9478"
       y2="55.05793"
       gradientUnits="userSpaceOnUse"
       gradientTransform="translate(0,6.879167)" /><linearGradient
       inkscape:collect="always"
       xlink:href="#calendar_base"
       id="linearGradient12735"
       x1="115.02268"
       y1="68.341934"
       x2="123.16943"
       y2="68.341934"
       gradientUnits="userSpaceOnUse"
       gradientTransform="translate(0,6.879167)" /><linearGradient
       inkscape:collect="always"
       xlink:href="#calendar_rings"
       id="linearGradient12741"
       x1="116.56694"
       y1="64.411484"
       x2="121.70071"
       y2="64.411484"
       gradientUnits="userSpaceOnUse"
       gradientTransform="translate(0,6.879167)" /><linearGradient
       inkscape:collect="always"
       xlink:href="#background"
       id="linearGradient14302"
       x1="111.96839"
       y1="83.063126"
       x2="120.15642"
       y2="83.063126"
       gradientUnits="userSpaceOnUse"
       gradientTransform="translate(0,6.879167)" /><linearGradient
       inkscape:collect="always"
       xlink:href="#clock"
       id="linearGradient14317"
       x1="111.96839"
       y1="83.063126"
       x2="120.15642"
       y2="83.063126"
       gradientUnits="userSpaceOnUse"
       gradientTransform="translate(0,6.879167)" /><linearGradient
       inkscape:collect="always"
       xlink:href="#calendar_days"
       id="linearGradient14702"
       x1="116.47457"
       y1="69.390587"
       x2="121.95532"
       y2="69.390587"
       gradientUnits="userSpaceOnUse"
       gradientTransform="translate(0,6.879167)" /></defs><g
     inkscape:groupmode="layer"
     id="layer2"
     inkscape:label="brain_and_cloud"
     style="display:inline;opacity:1"><circle
       style="opacity:1;fill:#0f172a;fill-opacity:1;stroke:none;stroke-width:0.264998;stroke-linecap:round;stroke-linejoin:round;stroke-dasharray:none;stroke-opacity:1;paint-order:markers fill stroke"
       id="path14296"
       cx="67.73333"
       cy="67.73333"
       r="67.73333" /><path
       id="path278"
       style="display:inline;opacity:1;fill:url(#linearGradient6525);fill-opacity:1;stroke:#000000;stroke-width:2.11667;stroke-linecap:round;stroke-linejoin:round;stroke-dasharray:none;paint-order:markers fill stroke"
       d="m 86.431949,64.634837 c -0.05683,-2.842263 -1.492792,-5.56195 -3.679091,-7.351145 -2.149221,-1.763327 -4.951128,-2.657037 -7.721607,-2.578349 -0.664347,-3.413584 -2.521093,-6.561541 -5.141166,-8.841498 -2.746489,-2.37931 -6.322317,-3.784536 -9.959527,-3.862075 -0.150602,-0.0051 -0.301489,-0.02457 -0.452042,-0.02299 -2.954852,0.03765 -5.898741,0.860627 -8.399025,2.446612 -3.063747,1.920463 -5.439134,4.923295 -6.573632,8.360029 -3.883792,-1.008662 -8.284574,0.118463 -11.09978,3.006592 -2.035165,2.063936 -3.133805,5.051929 -2.754817,7.943646 -0.06146,0.494257 0.584795,1.290204 -0.264144,1.255408 -3.169163,0.827437 -5.998419,2.856072 -7.852329,5.549748 -1.899557,2.73776 -2.763263,6.162399 -2.391853,9.473822 0.32682,3.003681 1.656284,5.890528 3.741552,8.080763 2.090033,2.228633 4.935767,3.734208 7.955478,4.208889 2.653919,0.362009 5.34871,0.129883 8.020581,0.195976 h 38.088095"
       sodipodi:nodetypes="ccccccccccccccccc"
       inkscape:label="cloud_body" /><path
       id="path2902"
       style="display:inline;opacity:1;fill:url(#linearGradient6156);fill-opacity:1;stroke:none;stroke-width:2.11667;stroke-linecap:round;stroke-linejoin:round;stroke-dasharray:none;paint-order:markers fill stroke"
       inkscape:label="cloud_body"
       d="m 59.328125,44.115499 c -5.725441,-0.01391 -11.136781,4.028747 -12.887571,9.456096 -0.572478,1.164429 -2.056356,1.500858 -3.214801,1.106757 -4.128531,-0.768336 -8.840433,1.56496 -10.176827,5.660996 -0.51927,1.559918 -0.277376,3.218043 -0.144629,4.813261 -0.222787,1.383444 -1.711043,1.928117 -2.906954,2.20276 -5.138099,1.707919 -8.539049,7.38111 -7.719213,12.721494 0.670109,5.303007 5.303912,9.901548 10.696976,10.197564 3.106432,0.231886 6.224623,0.01698 9.336222,0.09749 11.225,0.0037 22.45,0.0074 33.675,0.01116 0.802446,-0.375242 0.70688,-1.383797 1.030202,-2.096936 2.412147,-7.967679 4.8774,-15.924925 7.256362,-23.899122 -0.193891,-3.811785 -3.594666,-6.897998 -7.257267,-7.443395 -1.278116,-0.17839 -2.947334,0.100599 -3.724609,-1.203125 -0.709419,-1.532382 -0.890253,-3.280852 -1.860987,-4.699628 -2.413565,-4.240351 -7.20048,-7.060492 -12.101904,-6.925372 z" /><path
       id="path2911"
       style="display:inline;opacity:1;fill:url(#linearGradient6450);fill-opacity:1;stroke:none;stroke-width:2.11667;stroke-linecap:round;stroke-linejoin:round;stroke-dasharray:none;paint-order:markers fill stroke"
       inkscape:label="cloud_body"
       d="m 22.312333,80.302596 c 0.771318,5.206879 5.346743,9.680206 10.662915,9.972001 3.106429,0.231886 6.224269,0.01664 9.335864,0.09715 11.224989,0.0037 22.450476,0.0076 33.675464,0.01137 0.802446,-0.375242 0.70659,-1.383891 1.029912,-2.09703 0.583744,-1.928193 1.171077,-3.85575 1.759065,-5.783109 A 73.913925,25.421268 0 0 1 58.226937,83.51687 73.913925,25.421268 0 0 1 22.312333,80.302596 Z" /><path
       style="display:inline;opacity:1;fill:url(#linearGradient9925);fill-opacity:1;stroke:none;stroke-width:0.264583px;stroke-linecap:butt;stroke-linejoin:miter;stroke-opacity:1"
       d="m 94.661452,103.22867 -2.054037,-1.52431 -1.60083,-3.332273 -2.684079,-2.46234 -2.080794,-2.822734 -2.155084,-0.719484 -5.587651,0.0079 -1.489303,-2.392166 -1.147244,-1.848954 -3.582077,-0.917458 -1.50895,-1.69364 4.68254,-2.402272 1.47583,-2.768097 -0.970603,-2.753685 -2.283635,-0.220806 -2.116537,0.616567 0.273386,-2.289249 -1.546939,-0.324096 -0.824457,0.222488 0.454892,-3.400004 3.700336,-3.512841 2.360358,-4.472215 3.212135,-1.262701 2.804398,-0.299021 2.197372,-1.901158 3.199844,-0.220171 3.026453,0.227841 2.002985,2.121891 2.093422,2.129222 2.722089,0.398041 2.012539,-0.405039 1.556109,-1.252781 2.45036,0.573154 2.88205,2.392907 1.03666,3.585266 0.47753,1.309105 1.95243,1.823503 1.15754,4.128286 -1.19026,3.957359 0.11843,2.394308 -1.90416,5.573617 -2.34516,1.402863 -2.86475,3.027725 -2.908981,1.374435 -4.152734,0.141595 0.915006,5.240842 -0.32372,1.58868 z"
       id="path5749"
       sodipodi:nodetypes="cccccccccccccccccccccccccccccccccccccccccccccccc"
       inkscape:label="brain_fill" /><path
       id="path2843"
       style="font-variation-settings:normal;display:inline;opacity:1;vector-effect:none;fill:none;fill-opacity:1;stroke:#f4f4f4;stroke-width:1.05833;stroke-linecap:round;stroke-linejoin:miter;stroke-miterlimit:4;stroke-dasharray:none;stroke-dashoffset:0;stroke-opacity:1;-inkscape-stroke:none;stop-color:#000000;stop-opacity:1"
       d="m 86.681402,93.000667 c 0.384879,1.217434 3.183095,3.279413 3.941168,4.472689 0.758073,1.19328 1.615442,3.054674 1.818102,3.440004 0.202659,0.38533 1.187642,1.61413 2.424842,1.06365 1.237201,-0.55048 1.633855,-2.003524 0.667008,-5.360902 -0.278324,-0.966485 -0.995956,-2.273741 -0.995956,-2.273741 M 92.379101,93.44973 c 0,0 3.565291,1.958816 6.897163,0.74724 3.331866,-1.211574 4.897446,-3.649019 4.897446,-3.649019 m -17.289537,2.834725 c 0,0 -0.610631,-1.06734 0,0 z M 71.668529,85.210898 c 0,0 0.753825,1.376325 1.950317,1.981282 1.196492,0.60496 3.143269,0.495456 3.143269,0.495456 m 5.161469,-24.272351 c 0,0 -3.081591,-0.466569 -5.170851,1.289622 -2.089258,1.756189 -1.968723,4.404341 -1.968723,4.404341 0,0 -1.787747,0.240909 -3.586997,2.883978 -0.895431,1.315375 -0.578782,3.749639 -0.578782,3.749639 M 90.813903,62.896292 c 0,0 -1.192696,-2.884266 -5.271476,-1.764616 -4.07878,1.11965 -3.956688,4.389511 -3.376939,5.263936 m 3.904782,6.572358 c 0,0 -0.06,-2.081887 1.860478,-5.846929 1.920479,-3.765041 3.680174,-4.800516 3.680174,-4.800516 m 6.138404,6.28926 c 0,0 0.932697,-0.415831 1.653523,-2.171984 0.439487,-1.070713 -0.337797,-2.25706 -0.337797,-2.25706 m 3.340698,13.231935 c 0,0 1.08148,-1.124993 0.61403,-3.052218 -0.46746,-1.927223 -0.97677,-2.871005 -0.97677,-2.871005 m -1.45713,7.112111 c 0,0 0.72101,-1.270283 2.84769,-0.564127 2.12668,0.706157 2.18115,1.945136 2.18115,1.945136 m -21.513199,8.170753 c 0,0 -1.251057,-0.805992 -2.050902,-2.445243 m 19.184421,-1.958662 c 0,0 0.66842,2.073324 2.36492,2.146597 m -12.052939,3.261704 c 0,0 0.750361,-0.422948 1.400642,-1.029518 0.650283,-0.606568 1.12044,-1.956792 1.12044,-1.956792 0,0 2.419072,1.951521 4.842499,0.02678 2.423428,-1.92474 2.522898,-3.736701 2.522898,-3.736701 m 4.93546,-10.09029 c 0,0 0.74018,-3.351047 -1.51873,-5.94975 -2.00843,-2.310555 -5.785178,-2.240711 -5.785178,-2.240711 m -2.862866,16.92591 c 0,0 -0.329752,1.65898 -1.052251,2.140567 -0.722496,0.481588 -1.348972,-0.313573 -2.383868,0.29389 -1.034895,0.607467 -1.575942,1.393962 -1.575942,1.393962 0,0 -4.48299,-1.339438 -5.856565,3.227373 -1.373577,4.56681 4.260959,8.100796 10.019472,3.22359 2.245593,-1.901917 10.605028,1.879658 13.046678,-4.732161 1.18228,-3.201495 -0.41649,-4.908741 -0.41649,-4.908741 0,0 3.3255,-2.917944 2.26662,-5.709832 -1.19225,-3.143534 -3.96376,-4.758806 -6.04628,-1.819895 m -24.890588,9.162798 c 0,0 -4.00406,2.665893 -1.47305,6.597044 2.531011,3.93115 6.588847,1.521878 6.588847,1.521878"
       inkscape:label="brain_highlights"
       sodipodi:nodetypes="cssssccsccccsccscsccsccsccsccsccsccccccscsccsccsscssscsccsc" /><path
       id="path3191"
       style="font-variation-settings:normal;display:inline;opacity:1;vector-effect:none;fill:url(#linearGradient10207);fill-opacity:1;stroke:none;stroke-width:0.264583px;stroke-linecap:butt;stroke-linejoin:miter;stroke-miterlimit:4;stroke-dasharray:none;stroke-dashoffset:0;stroke-opacity:1;-inkscape-stroke:none;stop-color:#000000;stop-opacity:1"
       inkscape:label="brain_shadows"
       d="m 91.753573,61.894418 c 0,0 0.467057,4.718892 3.51348,4.792989 3.046423,0.0741 4.814697,-1.779737 4.814697,-1.779737 l -0.382409,-1.053165 z m 15.488977,19.108911 c 0,0 -0.6046,4.683717 -3.44062,4.706172 -2.836,0.02246 -2.63498,-0.472839 -2.63498,-0.472839 -1.892263,1.578126 -4.238295,2.260789 -7.121528,1.883089 l -2.240173,2.233972 c 0,0 -1.970595,0.667126 -3.86333,0.04082 -1.892736,-0.626298 -2.616378,-2.409155 -2.616378,-2.409155 0,0 -1.827094,1.582184 -4.201294,0.482657 -2.374198,-1.099527 -2.849955,-3.186885 -2.849955,-3.186885 0,0 -2.369166,0.09225 -3.269568,-0.772046 -0.182459,-0.175143 -0.276193,-0.306148 -0.323494,-0.399459 -0.03633,0.132766 -0.159636,0.340834 -0.49351,0.620634 -1.106824,0.927561 -1.243335,1.107943 -1.243335,1.107943 0,0 0.478867,1.0956 1.768884,1.43092 1.290016,0.335322 2.56005,-0.03566 2.56005,-0.03566 0,0 0.941893,3.615515 3.253032,4.401799 2.31114,0.786287 4.069002,-0.07855 4.069002,-0.07855 l 0.394808,-0.680062 c 0,0 1.613279,2.290766 4.204911,2.434477 2.591635,0.143706 4.984923,-3.018735 8.949842,-3.092835 3.964926,-0.0741 6.512996,1.21997 8.916766,-2.022099 2.40377,-3.242066 0.18087,-6.192903 0.18087,-6.192903 z M 74.68123,83.10966 c 0.0597,-0.218176 -0.115708,-0.228259 0,0 z m 30.19506,7.960754 -7.711678,0.312643 -2.514059,1.273307 -1.864485,1.184941 1.48208,0.589111 c 0,0 1.917287,-1.166672 4.318599,-1.648995 2.401313,-0.482321 5.361943,-0.398942 5.361943,-0.398942 z" /><path
       style="display:inline;opacity:1;fill:url(#linearGradient6162);fill-opacity:1;stroke:#000000;stroke-width:1.32292;stroke-linecap:butt;stroke-linejoin:round;stroke-dasharray:none;stroke-opacity:1"
       d="m 52.843244,75.484075 c 0,0 2.815613,3.032326 8.776491,3.848444 7.452711,1.02037 6.704286,-4.60359 9.449331,-3.938168 1.53807,0.372841 0.371344,2.787273 0.371344,2.787273 3.475022,-1.691019 5.000006,-0.747017 5.435451,1.35532 0.312589,1.509188 -1.01833,3.496605 -3.721368,4.934786 -2.141165,1.139231 -8.667837,2.530974 -14.493319,1.856213 -5.825482,-0.674762 -11.033767,-5.39338 -11.033767,-5.39338"
       id="path3569"
       sodipodi:nodetypes="csscsssc"
       inkscape:label="right_arm" /><path
       style="display:inline;opacity:1;fill:url(#linearGradient6168);fill-opacity:1;stroke:#000000;stroke-width:1.32292;stroke-linecap:round;stroke-linejoin:round;stroke-dasharray:none;stroke-opacity:1"
       d="m 85.090227,59.875447 c 0,0 3.52641,-3.521557 9.151047,-3.122063 3.720978,0.264285 7.355506,3.751078 5.531463,6.748997 -1.753168,2.881432 -5.329828,1.452958 -6.181233,0.651327 -0.851406,-0.80163 -2.079978,-3.343378 -2.079978,-3.343378 l -1.360816,0.157685"
       id="path3108"
       sodipodi:nodetypes="cssscc"
       inkscape:label="left_arm" /><path
       id="path3752"
       style="font-variation-settings:normal;display:inline;opacity:1;vector-effect:none;fill:url(#linearGradient6945);fill-opacity:1;stroke:none;stroke-width:0.264583px;stroke-linecap:butt;stroke-linejoin:miter;stroke-miterlimit:4;stroke-dasharray:none;stroke-dashoffset:0;stroke-opacity:1;-inkscape-stroke:none;stop-color:#000000;stop-opacity:1"
       inkscape:label="cloud_cheeks"
       d="m 64.636842,73.449668 c 0.147929,0.02865 -0.596741,1.506738 -1.895152,1.572831 -1.298408,0.06609 -2.170697,-0.773779 -1.957469,-0.922766 0.213225,-0.148987 0.752211,0.288579 1.703822,0.16794 1.221487,-0.154851 2.000871,-0.846652 2.148799,-0.818005 z m 10.277494,-7.933136 a 1.6668468,3.0544727 81.933653 0 1 -2.748848,2.094273 1.6668468,3.0544727 81.933653 0 1 -3.293244,-1.195308 1.6668468,3.0544727 81.933653 0 1 2.748849,-2.094275 1.6668468,3.0544727 81.933653 0 1 3.293243,1.19531 z m -20.505952,3.0555 a 1.6668468,3.0544727 81.933653 0 1 -2.748848,2.094275 1.6668468,3.0544727 81.933653 0 1 -3.293243,-1.19531 1.6668468,3.0544727 81.933653 0 1 2.748848,-2.094274 1.6668468,3.0544727 81.933653 0 1 3.293243,1.195309 z" /><path
       id="path3051"
       style="font-variation-settings:normal;opacity:1;vector-effect:none;fill:none;fill-opacity:1;stroke:#000000;stroke-width:1.05833;stroke-linecap:round;stroke-linejoin:miter;stroke-miterlimit:4;stroke-dasharray:none;stroke-dashoffset:0;stroke-opacity:1;-inkscape-stroke:none;stop-color:#000000;stop-opacity:1"
       d="m 86.680602,93.641921 c 0.406898,1.273178 3.365204,3.429572 4.166646,4.677487 0.801444,1.247918 1.707864,3.194552 1.922118,3.597522 0.214254,0.40297 1.255588,1.68804 2.563569,1.11235 1.307984,-0.57568 1.727331,-2.09526 0.70517,-5.606373 -0.294248,-1.010739 -1.052936,-2.377852 -1.052936,-2.377852 m -2.280896,-0.933508 c 0,0 3.769264,2.048506 7.291758,0.781454 3.522489,-1.26705 5.177629,-3.816101 5.177629,-3.816101 m -18.278687,2.964521 c 0,0 -0.645565,-1.116211 0,0 z M 70.808825,85.495472 c 0,0 0.796952,1.439344 2.061896,2.072002 1.264946,0.632659 3.3231,0.518142 3.3231,0.518142 m 5.486977,-25.208698 c 0,0 -3.288107,-0.662975 -5.496896,1.173628 -2.208787,1.836603 -2.081356,4.606008 -2.081356,4.606008 0,0 -1.890026,0.25194 -3.792213,3.016032 -0.946659,1.375603 -0.611895,3.921328 -0.611895,3.921328 m 21.35109,-13.434795 c 0,0 -1.722833,-2.721597 -6.034964,-1.55068 -4.312132,1.170916 -3.491603,5.075776 -2.878685,5.990239 m 3.946678,6.46959 c 0,0 -0.622627,-2.428777 1.407726,-6.366213 2.030353,-3.937436 4.401862,-5.145067 4.401862,-5.145067 m 5.833179,7.27097 c 0,0 1.51825,-0.451752 2.280316,-2.288316 0.46463,-1.119739 -0.232904,-3.037262 -0.232904,-3.037262 m 3.531824,13.837803 c 0,0 1.14335,-1.176505 0.64915,-3.191974 -0.4942,-2.015468 -1.93232,-2.758095 -1.93232,-2.758095 m -1.48658,7.246377 c 0,0 0.85905,-1.941104 3.1074,-1.202614 2.24835,0.73849 2.03001,2.636778 2.03001,2.636778 M 84.82836,87.45333 c 0,0 -1.923878,0.03311 -2.769483,-1.681199 m 18.972293,-1.18514 c 0,0 0.90193,1.26869 2.6955,1.345319 m -12.209619,3.270049 c 0,0 0.982205,-0.107035 1.66969,-0.741379 0.687485,-0.634341 1.102148,-1.641993 1.102148,-1.641993 0,0 2.572928,1.625341 5.135002,-0.38753 2.562069,-2.01287 2.025779,-4.089551 2.025779,-4.089551 m 6.04483,-10.274038 c 0,0 0.33736,-3.585158 -2.05079,-6.302851 -2.12334,-2.416351 -5.670974,-2.262637 -5.670974,-2.262637 m -3.565284,17.505534 c 0,0 -0.599914,1.285528 -1.363747,1.789165 -0.763831,0.50364 -1.426149,-0.32793 -2.520252,0.307348 -1.094102,0.635281 -1.424358,1.368751 -1.424358,1.368751 0,0 -4.892884,-0.990114 -6.345041,3.785803 -1.452161,4.775917 5.206328,8.794899 11.294292,3.694375 2.374066,-1.989003 10.795324,1.715633 13.376674,-5.19893 1.24991,-3.348087 -0.0238,-4.883412 -0.0238,-4.883412 0,0 2.74052,-3.183402 1.60755,-6.098027 -1.31745,-3.389245 -4.51749,-5.414933 -6.71916,-2.341454 m -24.766737,9.916901 c 0,0 -4.665292,3.018385 -1.98948,7.129536 2.675813,4.111151 6.965803,1.591562 6.965803,1.591562"
       inkscape:label="brain_wrinkles" /><path
       id="path3859"
       style="font-variation-settings:normal;display:inline;opacity:1;vector-effect:none;fill:#ffffff;fill-opacity:1;stroke:none;stroke-width:0.264583px;stroke-linecap:butt;stroke-linejoin:miter;stroke-miterlimit:4;stroke-dasharray:none;stroke-dashoffset:0;stroke-opacity:1;-inkscape-stroke:none;stop-color:#000000;stop-opacity:1"
       d="m 51.984002,66.18232 3.26567,-1.443558 0.968549,-2.380086 c 0,0 -1.899729,-1.986848 -3.934393,0.652976 -0.926208,1.201686 -0.299826,3.170668 -0.299826,3.170668 z m 13.526849,-1.727242 3.140501,-1.711629 0.934278,-2.330733 c 0,0 -2.132129,-1.242706 -3.755636,0.511 -1.623507,1.753706 -0.319143,3.531362 -0.319143,3.531362 z"
       inkscape:label="cloud_eyes_white" /><path
       id="path3483"
       style="font-variation-settings:normal;opacity:1;vector-effect:none;fill:#000000;fill-opacity:1;stroke:none;stroke-width:0.264583px;stroke-linecap:butt;stroke-linejoin:miter;stroke-miterlimit:4;stroke-dasharray:none;stroke-dashoffset:0;stroke-opacity:1;-inkscape-stroke:none;paint-order:markers fill stroke;stop-color:#000000;stop-opacity:1"
       d="m 67.573648,59.347203 c -1.705153,0.15323 -2.931301,2.015567 -2.738758,4.159768 0.05221,0.575115 0.205375,1.133767 0.448425,1.635579 0.526445,-0.796416 1.864604,-1.404092 3.395809,-1.542083 0.829123,-0.07447 1.648342,-0.0043 2.333041,0.19972 0.02403,-0.280683 0.02336,-0.565085 -0.002,-0.848133 -0.192816,-2.144176 -1.731343,-3.758076 -3.436497,-3.604851 z m 1.55803,1.263275 c -0.185495,-0.08797 -1.784184,0.151756 -1.592934,0.416025 0.05447,0.07527 0.159027,0.02922 0.201527,0.05039 0.01485,0.0047 0.06735,-0.02743 0.0818,-0.02166 6.55e-4,1.54e-4 0.0015,1.97e-4 0.0021,3.26e-4 0.0043,9.19e-4 0.0069,0.0015 0.0069,0.0015 l -9.06e-4,0.0011 c 0.216208,0.08573 0.302927,0.299607 0.324364,0.531202 0.03077,0.340039 -0.157178,0.626582 -0.497256,0.656927 -0.217652,0.01947 -0.429391,-0.07752 -0.556811,-0.255046 l -6.58e-4,-0.0015 c -0.0074,-0.0109 -0.01447,-0.02203 -0.02116,-0.03338 -0.02103,-0.02833 -0.05579,-0.06197 -0.09843,-0.0503 -0.04355,0.01195 -0.15461,0.0075 -0.218935,0.160218 -0.06432,0.152743 -0.174623,0.330625 -0.138753,0.731484 0.03587,0.400859 0.229297,0.691104 0.229297,0.691104 l -1.260328,0.389076 -0.04495,-1.071191 c -0.112737,-1.253027 0.886576,-2.416233 1.90508,-2.55554 1.018503,-0.139307 1.271215,0.125835 1.680053,0.359265 z m -14.632679,0.661239 a 3.1000726,3.8982651 0 0 0 -3.100069,3.897953 3.1000726,3.8982651 0 0 0 0.30024,1.669149 3.8204057,2.0110877 0 0 1 3.520198,-1.231967 3.8204057,2.0110877 0 0 1 2.305803,0.407728 3.1000726,3.8982651 0 0 0 0.0739,-0.84491 3.1000726,3.8982651 0 0 0 -3.100069,-3.897953 z m -0.08423,0.790649 a 2.2952147,2.2776484 0 0 1 1.318783,0.413411 c 0,0 -1.191441,0.191377 -1.239201,0.337448 -0.02888,0.08831 0.0164,0.137372 0.05684,0.162264 a 0.61766392,0.61766392 0 0 1 0.04237,0.01964 c 6.38e-4,2.12e-4 0.0015,3.32e-4 0.0021,5.16e-4 0.0042,0.0013 0.0067,0.0021 0.0067,0.0021 l -0.001,10e-4 a 0.61766392,0.61766392 0 0 1 0.339515,0.549837 0.61766392,0.61766392 0 0 1 -0.618051,0.61805 0.61766392,0.61766392 0 0 1 -0.53175,-0.303857 0.61766392,0.61766392 0 0 1 -5.17e-4,-0.0015 0.61766392,0.61766392 0 0 1 -0.01809,-0.03514 c -0.01841,-0.0301 -0.05002,-0.06672 -0.09353,-0.05891 -0.04444,0.008 -0.0691,0.07508 -0.08268,0.150379 a 1.7323686,1.721101 0 0 0 -0.01654,0.226859 v 0.95188 l -1.460376,0.510563 v -1.266589 a 2.2952147,2.2776484 0 0 1 2.295467,-2.277897 z"
       inkscape:label="cloud_eyes_black" /><path
       id="path3522"
       style="font-variation-settings:normal;opacity:1;vector-effect:none;fill:#000000;fill-opacity:1;stroke:none;stroke-width:0.264583px;stroke-linecap:butt;stroke-linejoin:miter;stroke-miterlimit:4;stroke-dasharray:none;stroke-dashoffset:0;stroke-opacity:1;-inkscape-stroke:none;stop-color:#000000;stop-opacity:1"
       d="m 67.969002,55.916381 c 1.210948,0.43955 1.929355,1.27168 1.703427,1.607167 -0.22593,0.335483 -0.735144,0.07476 -0.735144,0.07476 0,0 -0.62691,-0.479976 -1.288355,-0.58629 -0.661442,-0.106315 -1.382561,-0.147003 -1.382561,-0.147003 0,0 -0.603555,-0.209453 -0.350172,-0.870502 0.253384,-0.661045 2.052805,-0.07813 2.052805,-0.07813 z m -15.901908,2.312736 c 0.305914,-0.227912 2.190569,-1.314054 2.522723,-0.730776 0.561082,0.985285 -0.820354,1.045091 -0.820354,1.045091 0,0 -0.879102,0.224605 -1.313362,0.681887 -0.434258,0.457282 -0.943671,1.078701 -1.302642,0.77358 -0.358971,-0.305117 0.01132,-0.862166 0.253383,-1.151405 0.24207,-0.289243 0.660252,-0.618377 0.660252,-0.618377 z"
       inkscape:label="cloud_brows" /><path
       style="font-variation-settings:normal;display:inline;opacity:1;vector-effect:none;fill:url(#linearGradient9548);fill-opacity:1;stroke:none;stroke-width:0.264583px;stroke-linecap:butt;stroke-linejoin:miter;stroke-miterlimit:4;stroke-dasharray:none;stroke-dashoffset:0;stroke-opacity:1;-inkscape-stroke:none;stop-color:#000000;stop-opacity:1"
       d="m 57.799586,70.696387 3.309469,-0.840203 3.563379,1.776333 c 0,0 -1.669883,1.421395 -3.713559,1.132089 -2.043674,-0.289309 -3.159289,-2.068219 -3.159289,-2.068219 z"
       id="path3972"
       inkscape:label="tongue" /><path
       id="path3546"
       style="font-variation-settings:normal;opacity:1;vector-effect:none;fill:#000000;fill-opacity:1;stroke:none;stroke-width:0.264583px;stroke-linecap:butt;stroke-linejoin:miter;stroke-miterlimit:4;stroke-dasharray:none;stroke-dashoffset:0;stroke-opacity:1;-inkscape-stroke:none;stop-color:#000000;stop-opacity:1"
       d="m 67.199516,66.499821 c -0.555609,0.0057 -1.231474,1.592518 -5.07233,2.189319 -2.757241,0.428426 -5.014297,-0.72609 -5.570948,-0.64161 -0.556649,0.08448 -0.377755,0.933794 -0.377755,0.933794 0,0 0.87606,4.109544 5.947466,4.047938 5.147403,-0.06253 5.772495,-6.22036 5.260635,-6.4881 -0.05598,-0.02928 -0.118836,-0.04204 -0.187068,-0.04134 z m -6.616651,3.878316 c 0.289556,-0.004 0.59982,0.02311 0.925525,0.09663 1.7371,0.392115 2.605526,1.261422 2.605526,1.261422 0,0 -1.134629,0.829395 -2.825151,0.6165 -1.690524,-0.212894 -2.82205,-1.350305 -2.82205,-1.350305 0,0 0.861408,-0.606873 2.11615,-0.624252 z"
       inkscape:label="cloud_mouth"
       sodipodi:nodetypes="ssscssssscscss" /><path
       id="path4245"
       style="font-variation-settings:normal;opacity:1;vector-effect:none;fill:#404040;fill-opacity:1;stroke:none;stroke-width:0.264583px;stroke-linecap:butt;stroke-linejoin:miter;stroke-miterlimit:4;stroke-dasharray:none;stroke-dashoffset:0;stroke-opacity:1;-inkscape-stroke:none;stop-color:#000000;stop-opacity:1"
       d="m 81.605673,74.877573 c 0,0 -3.342738,0.602714 -3.556078,0.800785 -1.297689,1.20481 0.667945,4.346907 3.364802,2.857299 2.563987,-1.416217 0.191276,-3.658084 0.191276,-3.658084 z m 9.282932,1.090173 c -1.395004,-0.0095 -2.896932,3.10555 0.0046,3.98787 3.280349,0.997496 3.593063,-1.954919 3.593063,-1.954919 0,0 -1.568034,-1.874438 -3.531568,-2.02985 -0.02207,-0.0017 -0.044,-0.003 -0.06615,-0.0031 z"
       inkscape:label="brain_eyes_white"
       sodipodi:nodetypes="csscsscsss" /><path
       id="path4130"
       style="font-variation-settings:normal;opacity:1;vector-effect:none;fill:#ffffff;fill-opacity:1;stroke:none;stroke-width:0.264583px;stroke-linecap:butt;stroke-linejoin:miter;stroke-miterlimit:4;stroke-dasharray:none;stroke-dashoffset:0;stroke-opacity:1;-inkscape-stroke:none;stop-color:#000000;stop-opacity:1"
       d="m 81.149376,74.395546 c 0,0 -2.898016,0.405346 -3.105956,0.609079 -1.256335,1.230914 0.536772,4.558261 3.233629,3.068653 2.563987,-1.416217 -0.127673,-3.677732 -0.127673,-3.677732 z m 9.733054,0.898467 c -1.395004,-0.0095 -2.896932,3.10555 0.0046,3.98787 3.280349,0.997496 3.593063,-1.954919 3.593063,-1.954919 0,0 -1.568034,-1.874438 -3.531568,-2.02985 -0.02207,-0.0017 -0.044,-0.003 -0.06615,-0.0031 z"
       inkscape:label="brain_eyes_white"
       sodipodi:nodetypes="csscsscss" /><path
       id="path4069"
       style="font-variation-settings:normal;opacity:1;vector-effect:none;fill:#000000;fill-opacity:1;stroke:none;stroke-width:0.264583px;stroke-linecap:butt;stroke-linejoin:miter;stroke-miterlimit:4;stroke-dasharray:none;stroke-dashoffset:0;stroke-opacity:1;-inkscape-stroke:none;paint-order:markers fill stroke;stop-color:#000000;stop-opacity:1"
       d="m 81.048921,73.81555 c -0.151073,0.0074 -1.02772,0.352348 -1.612304,0.588078 l -0.96635,0.357601 a 1.3916994,1.3916994 0 0 0 -0.01085,0.0088 c -0.02242,0.0071 -0.04542,0.01366 -0.06821,0.02067 l -0.0098,0.0036 -0.02222,0.0062 c -0.112955,0.03428 -0.22597,0.06618 -0.322461,0.08785 -0.0019,4.2e-4 -0.0038,0.0011 -0.0057,0.0016 -0.08532,0.01894 -0.157164,0.02988 -0.201538,0.02687 -0.216685,-0.01471 -0.357472,0.143832 -0.337448,0.278536 0.02003,0.134705 0.137589,0.320594 0.333313,0.301791 0.03972,-0.0038 0.122554,-0.02164 0.227893,-0.04703 a 1.3916994,1.3916994 0 0 0 -0.04392,0.345199 1.3916994,1.3916994 0 0 0 1.391646,1.391646 1.3916994,1.3916994 0 0 0 1.391646,-1.391646 1.3916994,1.3916994 0 0 0 -0.502812,-1.070736 l 1.217497,-0.468705 c 0,0 -0.229214,-0.451465 -0.45837,-0.440284 z m 9.905856,0.794267 c -0.08097,0.0017 -0.163907,0.02488 -0.242363,0.08061 -0.147016,0.104439 -0.08693,0.375831 0.0026,0.609266 a 1.485544,1.485544 0 0 0 -1.229382,1.461926 1.485544,1.485544 0 0 0 1.485697,1.485697 1.485544,1.485544 0 0 0 1.485697,-1.485697 1.485544,1.485544 0 0 0 -0.09819,-0.530717 l 2.121318,1.096057 c 0,0 0.359141,-0.06558 0.423747,-0.286804 0.0646,-0.221226 -0.08423,-0.429948 -0.08423,-0.429948 0,0 -1.53682,-0.611006 -2.171444,-0.933277 -0.634621,-0.322266 -1.112099,-0.705669 -1.21698,-0.839225 -0.07538,-0.096 -0.269533,-0.23223 -0.476456,-0.227893 z m -11.760523,0.535368 a 0.54500443,0.42449787 0 0 1 0.545186,0.42478 0.54500443,0.42449787 0 0 1 -0.545186,0.424264 0.54500443,0.42449787 0 0 1 -0.545186,-0.424264 0.54500443,0.42449787 0 0 1 0.545186,-0.42478 z m 11.489221,0.646472 a 0.56214952,0.46670559 0 0 1 0.561723,0.466638 0.56214952,0.46670559 0 0 1 -0.561723,0.467155 0.56214952,0.46670559 0 0 1 -0.562239,-0.467155 0.56214952,0.46670559 0 0 1 0.562239,-0.466638 z"
       inkscape:label="brain_eyes_black" /><path
       id="path4182"
       style="fill:none;stroke:#000000;stroke-width:0.79375;stroke-linecap:round;stroke-linejoin:miter;stroke-dasharray:none;stroke-opacity:1"
       d="m 91.670943,72.577637 c 0,0 0.210301,0.853821 0.667057,1.202273 0.456752,0.348451 1.418204,0.442487 1.418204,0.442487 M 78.97051,72.775042 c 0,0 0.863613,0.165558 1.370996,-0.103899 0.507381,-0.269454 0.994413,-1.103739 0.994413,-1.103739"
       inkscape:label="brain_eyebrows" /><path
       style="fill:none;stroke:#000000;stroke-width:0.79375;stroke-linecap:round;stroke-linejoin:miter;stroke-dasharray:none;stroke-opacity:1"
       d="m 87.269242,80.761736 c 0,0 -0.132431,-0.890738 -1.597169,-1.099957 -1.464739,-0.209219 -1.990113,1.0278 -1.990113,1.0278"
       id="path4184"
       sodipodi:nodetypes="czc"
       inkscape:label="brain_mouth" /></g><g
     inkscape:groupmode="layer"
     id="layer3"
     inkscape:label="icons"
     style="display:inline;opacity:1"><path
       style="fill:none;stroke:url(#linearGradient11128);stroke-width:1.5875;stroke-linecap:round;stroke-linejoin:round;stroke-dasharray:none;stroke-opacity:1"
       d="m 111.43435,62.080085 2.24897,2.233746 4.47073,-4.753423"
       id="path4487"
       sodipodi:nodetypes="ccc"
       inkscape:label="check" /><path
       id="path4522"
       style="font-variation-settings:normal;opacity:1;fill:url(#linearGradient10702);fill-opacity:1;stroke:#d36d6d;stroke-width:0;stroke-linecap:round;stroke-linejoin:round;stroke-miterlimit:4;stroke-dasharray:none;stroke-dashoffset:0;stroke-opacity:1;paint-order:markers fill stroke;stop-color:#000000;stop-opacity:1"
       d="m 81.920064,41.656376 a 2.921917,2.921917 0 0 0 -2.921785,2.921786 c 0,0 -0.413965,1.572801 2.173511,3.949113 2.012778,1.848515 3.257165,2.639115 3.257165,2.639115 0,0 2.430427,-1.577245 4.041097,-3.428731 1.61067,-1.851483 1.434538,-3.159497 1.434538,-3.159497 a 2.921917,2.921917 0 0 0 -2.921786,-2.921786 2.921917,2.921917 0 0 0 -2.531628,1.462443 2.921917,2.921917 0 0 0 -2.531112,-1.462443 z"
       inkscape:label="heart" /><path
       id="path4992"
       style="font-variation-settings:normal;display:inline;opacity:1;fill:url(#linearGradient10420);fill-opacity:1;stroke:#000000;stroke-width:0;stroke-linecap:round;stroke-linejoin:round;stroke-miterlimit:4;stroke-dasharray:none;stroke-dashoffset:0;stroke-opacity:1;paint-order:markers fill stroke;stop-color:#000000;stop-opacity:1"
       inkscape:label="heart_inner"
       d="m 86.65625,43.318624 c -0.852276,0.387181 -1.459639,1.571463 -2.537109,1.197266 -0.978367,-0.205488 -1.57655,-1.604651 -2.671654,-1.15797 -1.158973,0.498876 -1.053155,2.203195 -0.172457,2.929147 0.805971,1.025117 1.820093,1.858351 2.846064,2.652651 0.843246,0.185322 1.349222,-0.633627 1.968854,-1.062102 0.95252,-0.865482 1.973168,-1.880753 2.224505,-3.186336 0.01589,-0.823617 -0.813753,-1.660494 -1.658203,-1.372656 z" /><path
       id="path4602"
       style="font-variation-settings:normal;display:inline;opacity:1;vector-effect:none;fill:url(#linearGradient11053);fill-opacity:1;stroke:#000000;stroke-width:0;stroke-linecap:round;stroke-linejoin:round;stroke-miterlimit:4;stroke-dasharray:none;stroke-dashoffset:0;stroke-opacity:1;-inkscape-stroke:none;paint-order:markers fill stroke;stop-color:#000000;stop-opacity:1"
       d="m 104.67165,48.9257 a 4.4690337,4.4690337 0 0 0 -0.91778,0.09819 0.85561526,0.85561526 0 0 1 0.06,0.310059 0.85561526,0.85561526 0 0 1 -0.85576,0.855762 0.85561526,0.85561526 0 0 1 -0.77567,-0.502812 4.4690337,4.4690337 0 0 0 -1.12396,1.078487 0.85561526,0.85561526 0 0 1 0.49661,0.77618 0.85561526,0.85561526 0 0 1 -0.85524,0.855762 0.85561526,0.85561526 0 0 1 -0.36277,-0.08423 4.4690337,4.4690337 0 0 0 -0.13436,1.081588 4.4690337,4.4690337 0 0 0 0.0589,0.720369 0.85561526,0.85561526 0 0 1 0.33693,-0.07235 0.85561526,0.85561526 0 0 1 0.85576,0.855762 0.85561526,0.85561526 0 0 1 -0.60254,0.813904 4.4690337,4.4690337 0 0 0 1.26503,1.345654 0.85561526,0.85561526 0 0 1 0.8413,-0.703316 0.85561526,0.85561526 0 0 1 0.85576,0.855762 0.85561526,0.85561526 0 0 1 -0.18397,0.5302 4.4690337,4.4690337 0 0 0 1.0418,0.12299 4.4690337,4.4690337 0 0 0 0.98495,-0.112138 0.85561526,0.85561526 0 0 1 -0.19379,-0.541052 0.85561526,0.85561526 0 0 1 0.85577,-0.855762 0.85561526,0.85561526 0 0 1 0.84801,0.743624 4.4690337,4.4690337 0 0 0 1.29449,-1.336869 0.85561526,0.85561526 0 0 1 -0.57206,-0.806153 0.85561526,0.85561526 0 0 1 0.85576,-0.855761 0.85561526,0.85561526 0 0 1 0.32712,0.06563 4.4690337,4.4690337 0 0 0 0.0687,-0.770496 4.4690337,4.4690337 0 0 0 -0.10335,-0.95498 0.85561526,0.85561526 0 0 1 -0.29249,0.05168 0.85561526,0.85561526 0 0 1 -0.85576,-0.855762 0.85561526,0.85561526 0 0 1 0.47284,-0.761194 4.4690337,4.4690337 0 0 0 -1.24902,-1.222664 0.85561526,0.85561526 0 0 1 -0.79426,0.537952 0.85561526,0.85561526 0 0 1 -0.85577,-0.855762 0.85561526,0.85561526 0 0 1 0.0667,-0.324528 4.4690337,4.4690337 0 0 0 -0.85783,-0.08372 z m 0,2.627747 a 1.7191688,1.7191688 0 0 1 1.71927,1.718758 1.7191688,1.7191688 0 0 1 -1.71927,1.719275 1.7191688,1.7191688 0 0 1 -1.71928,-1.719275 1.7191688,1.7191688 0 0 1 1.71928,-1.718758 z"
       inkscape:label="gear" /><rect
       style="font-variation-settings:normal;opacity:1;fill:url(#linearGradient12735);fill-opacity:1;stroke:#000000;stroke-width:0.265;stroke-linecap:round;stroke-linejoin:round;stroke-miterlimit:4;stroke-dasharray:none;stroke-dashoffset:0;stroke-opacity:1;paint-order:markers fill stroke;stop-color:#000000;stop-opacity:1"
       id="rect4672"
       width="7.8817463"
       height="7.990129"
       x="115.15518"
       y="71.226044"
       ry="1.0142623"
       inkscape:label="calendar_base"
       rx="1.0142623" /><path
       id="path4483"
       style="display:inline;opacity:1;fill:url(#linearGradient14302);fill-opacity:1;stroke:url(#linearGradient14317);stroke-width:0.926042;stroke-linecap:round;stroke-linejoin:miter;stroke-dasharray:none;stroke-opacity:1"
       d="m 115.93595,87.876785 v 2.134971 l 1.37488,0.937855 m 2.38257,-1.007314 a 3.6309941,3.6309941 0 0 1 -3.63099,3.630994 3.6309941,3.6309941 0 0 1 -3.631,-3.630994 3.6309941,3.6309941 0 0 1 3.631,-3.630994 3.6309941,3.6309941 0 0 1 3.63099,3.630994 z"
       inkscape:label="clock" /><path
       id="rect4710"
       style="opacity:1;fill:url(#linearGradient12741);fill-opacity:1;stroke:#000000;stroke-width:0.264583;stroke-linecap:round;stroke-linejoin:round;paint-order:markers fill stroke;stop-color:#000000;stop-opacity:1"
       d="m 121.12083,70.389349 c 0.24797,0 0.44759,0.167565 0.44759,0.375706 v 1.051194 c 0,0.208141 -0.19962,0.375706 -0.44759,0.375706 -0.24796,0 -0.44758,-0.167565 -0.44758,-0.375706 v -1.051194 c 0,-0.208141 0.19962,-0.375706 0.44758,-0.375706 z m -3.97402,0 c 0.24797,0 0.44759,0.167565 0.44759,0.375706 v 1.051194 c 0,0.208141 -0.19962,0.375706 -0.44759,0.375706 -0.24796,0 -0.44758,-0.167565 -0.44758,-0.375706 v -1.051194 c 0,-0.208141 0.19962,-0.375706 0.44758,-0.375706 z"
       inkscape:label="calendar_rings" /><path
       style="fill:none;stroke:#000000;stroke-width:0.264583px;stroke-linecap:butt;stroke-linejoin:miter;stroke-opacity:1"
       d="m 115.24946,73.314574 h 7.75777"
       id="path4753"
       inkscape:label="calendar_split" /><path
       id="rect4791"
       style="font-variation-settings:normal;opacity:0.3;fill:url(#linearGradient14702);fill-opacity:1;stroke:none;stroke-width:0.264583;stroke-linecap:round;stroke-linejoin:round;stroke-miterlimit:4;stroke-dasharray:none;stroke-dashoffset:0;stroke-opacity:1;paint-order:markers fill stroke;stop-color:#000000;stop-opacity:1"
       d="m 117.97936,74.435254 c -0.0314,0.0019 -0.0558,0.03361 -0.0558,0.07235 v 0.674894 c 0,0.03999 0.0261,0.07183 0.0589,0.07183 h 0.82424 c 0.0328,0 0.0594,-0.03184 0.0594,-0.07183 v -0.674897 c 0,-0.03999 -0.0266,-0.07235 -0.0594,-0.07235 h -0.82424 c -0.001,0 -0.002,-6.2e-5 -0.003,0 z m 1.50895,0 c -0.0314,0.0019 -0.0563,0.03361 -0.0563,0.07235 v 0.674894 c 0,0.03999 0.0266,0.07183 0.0594,0.07183 h 0.82424 c 0.0328,0 0.0589,-0.03184 0.0589,-0.07183 v -0.674897 c 0,-0.03999 -0.0261,-0.07235 -0.0589,-0.07235 h -0.82424 c -0.001,0 -0.002,-6.2e-5 -0.003,0 z m 1.58027,0 c -0.0314,0.0019 -0.0563,0.03361 -0.0563,0.07235 v 0.674894 c 0,0.03999 0.0266,0.07183 0.0594,0.07183 h 0.82424 c 0.0328,0 0.0594,-0.03184 0.0594,-0.07183 v -0.674897 c 0,-0.03999 -0.0266,-0.07235 -0.0594,-0.07235 h -0.82424 c -0.001,0 -0.002,-6.2e-5 -0.003,0 z m -4.53771,1.489315 c -0.0314,0.0019 -0.0563,0.03361 -0.0563,0.07235 v 0.674894 c 0,0.03999 0.0266,0.07183 0.0594,0.07183 h 0.82424 c 0.0328,0 0.0594,-0.03184 0.0594,-0.07183 v -0.674894 c 0,-0.03999 -0.0266,-0.07235 -0.0594,-0.07235 h -0.82424 c -10e-4,0 -0.002,-6.2e-5 -0.003,0 z m 1.44849,0 c -0.0314,0.0019 -0.0558,0.03361 -0.0558,0.07235 v 0.674894 c 0,0.03999 0.0261,0.07183 0.0589,0.07183 h 0.82424 c 0.0328,0 0.0594,-0.03184 0.0594,-0.07183 v -0.674894 c 0,-0.03999 -0.0266,-0.07235 -0.0594,-0.07235 h -0.82424 c -0.001,0 -0.002,-6.2e-5 -0.003,0 z m 1.50895,0 c -0.0314,0.0019 -0.0563,0.03361 -0.0563,0.07235 v 0.674894 c 0,0.03999 0.0266,0.07183 0.0594,0.07183 h 0.82424 c 0.0328,0 0.0589,-0.03184 0.0589,-0.07183 v -0.674894 c 0,-0.03999 -0.0261,-0.07235 -0.0589,-0.07235 h -0.82424 c -0.001,0 -0.002,-6.2e-5 -0.003,0 z m 1.58027,0 c -0.0314,0.0019 -0.0563,0.03361 -0.0563,0.07235 v 0.674894 c 0,0.03999 0.0266,0.07183 0.0594,0.07183 h 0.82424 c 0.0328,0 0.0594,-0.03184 0.0594,-0.07183 v -0.674894 c 0,-0.03999 -0.0266,-0.07235 -0.0594,-0.07235 h -0.82424 c -0.001,0 -0.002,-6.2e-5 -0.003,0 z m -4.53461,1.360124 c -0.0328,0 -0.0594,0.03236 -0.0594,0.07235 v 0.674894 c 0,0.03999 0.0266,0.07235 0.0594,0.07235 h 0.82424 c 0.0328,0 0.0594,-0.03236 0.0594,-0.07235 v -0.674894 c 0,-0.03999 -0.0266,-0.07235 -0.0594,-0.07235 z m 1.44849,0 c -0.0328,0 -0.0589,0.03236 -0.0589,0.07235 v 0.674894 c 0,0.03999 0.0261,0.07235 0.0589,0.07235 h 0.82424 c 0.0328,0 0.0594,-0.03236 0.0594,-0.07235 v -0.674894 c 0,-0.03999 -0.0266,-0.07235 -0.0594,-0.07235 z m 1.50895,0 c -0.0328,0 -0.0594,0.03236 -0.0594,0.07235 v 0.674894 c 0,0.03999 0.0266,0.07235 0.0594,0.07235 h 0.82424 c 0.0328,0 0.0589,-0.03236 0.0589,-0.07235 v -0.674894 c 0,-0.03999 -0.0261,-0.07235 -0.0589,-0.07235 z"
       inkscape:label="calendar_days" /><ellipse
       style="font-variation-settings:normal;opacity:1;fill:#790000;fill-opacity:1;stroke:none;stroke-width:0.264583;stroke-linecap:round;stroke-linejoin:round;stroke-miterlimit:4;stroke-dasharray:none;stroke-dashoffset:0;stroke-opacity:1;paint-order:markers fill stroke;stop-color:#000000;stop-opacity:1"
       id="path5090"
       cx="109.10375"
       cy="96.641777"
       rx="1.0095698"
       ry="0.96583003"
       inkscape:label="dot" /><ellipse
       style="font-variation-settings:normal;opacity:1;fill:#0037ac;fill-opacity:1;stroke:none;stroke-width:0.264583;stroke-linecap:round;stroke-linejoin:round;stroke-miterlimit:4;stroke-dasharray:none;stroke-dashoffset:0;stroke-opacity:1;paint-order:markers fill stroke;stop-color:#000000;stop-opacity:1"
       id="ellipse5092"
       cx="114.70931"
       cy="82.413101"
       rx="0.68576133"
       ry="0.65605068"
       inkscape:label="dot" /><ellipse
       style="font-variation-settings:normal;opacity:1;fill:#1ac100;fill-opacity:1;stroke:none;stroke-width:0.264583;stroke-linecap:round;stroke-linejoin:round;stroke-miterlimit:4;stroke-dasharray:none;stroke-dashoffset:0;stroke-opacity:1;paint-order:markers fill stroke;stop-color:#000000;stop-opacity:1"
       id="ellipse5094"
       cx="114.00186"
       cy="53.925266"
       rx="1.0839792"
       ry="1.0370157"
       inkscape:label="dot" /><ellipse
       style="font-variation-settings:normal;opacity:1;fill:#ffda28;fill-opacity:1;stroke:none;stroke-width:0.264583;stroke-linecap:round;stroke-linejoin:round;stroke-miterlimit:4;stroke-dasharray:none;stroke-dashoffset:0;stroke-opacity:1;paint-order:markers fill stroke;stop-color:#000000;stop-opacity:1"
       id="ellipse5096"
       cx="107.12448"
       cy="61.636333"
       rx="0.78551185"
       ry="0.75147945"
       inkscape:label="dot" /><ellipse
       style="font-variation-settings:normal;opacity:1;fill:#c17e05;fill-opacity:1;stroke:none;stroke-width:0.264583;stroke-linecap:round;stroke-linejoin:round;stroke-miterlimit:4;stroke-dasharray:none;stroke-dashoffset:0;stroke-opacity:1;paint-order:markers fill stroke;stop-color:#000000;stop-opacity:1"
       id="ellipse5098"
       cx="120.62473"
       cy="66.047722"
       rx="0.78551185"
       ry="0.75147945"
       inkscape:label="dot" /></g></svg>
